<?xml version="1.0" encoding="UTF-8" standalone="no"?>
<!-- Created with Inkscape (http://www.inkscape.org/) -->

<svg
   width="46.345367mm"
   height="11.144766mm"
   viewBox="0 0 46.345368 11.144766"
   version="1.1"
   id="svg1"
   xml:space="preserve"
   sodipodi:docname="logo_FULL.svg"
   inkscape:version="1.4 (86a8ad7, 2024-10-11)"
   xmlns:inkscape="http://www.inkscape.org/namespaces/inkscape"
   xmlns:sodipodi="http://sodipodi.sourceforge.net/DTD/sodipodi-0.dtd"
   xmlns="http://www.w3.org/2000/svg"
   xmlns:svg="http://www.w3.org/2000/svg"><sodipodi:namedview
     id="namedview1"
     pagecolor="#ffffff"
     bordercolor="#000000"
     borderopacity="0.25"
     inkscape:showpageshadow="2"
     inkscape:pageopacity="0.0"
     inkscape:pagecheckerboard="0"
     inkscape:deskcolor="#d1d1d1"
     inkscape:document-units="mm"
     inkscape:zoom="6.8050671"
     inkscape:cx="69.433555"
     inkscape:cy="35.488262"
     inkscape:window-width="2560"
     inkscape:window-height="1369"
     inkscape:window-x="-8"
     inkscape:window-y="-8"
     inkscape:window-maximized="1"
     inkscape:current-layer="svg1" /><defs
     id="defs1" /><g
     id="g19"
     transform="translate(109.68564,-291.10405)"><g
       id="g17"
       transform="matrix(0.50556773,0,0,0.50556773,-68.273005,146.28229)"><g
         id="path19"
         transform="matrix(1.0025023,0,0,1.0025023,45.550525,-132.58907)"><path
           id="path20"
           style="fill:#000100;stroke-linejoin:bevel;paint-order:stroke fill markers"
           d="m -125.37026,417.99769 c -0.94982,-6e-5 -1.77539,0.78618 -1.77529,1.76138 v 18.46481 c -1e-4,0.9752 0.82547,1.76196 1.77529,1.76189 h 6.33983 c 0.0637,0 0.16562,1.9e-4 0.24845,0 0.005,-10e-6 0.009,2e-5 0.0134,0 h 1.39487 c 0.0494,0 0.0972,-0.006 0.14588,-0.009 0.002,-1.2e-4 0.004,-3.9e-4 0.007,-5.2e-4 0.10005,-0.006 0.19838,-0.0162 0.29537,-0.0325 0.005,-7.7e-4 0.009,-0.002 0.0139,-0.003 0.093,-0.0161 0.1844,-0.0358 0.27423,-0.0608 0.0122,-0.003 0.024,-0.007 0.0361,-0.0108 0.0815,-0.0239 0.16212,-0.0499 0.24073,-0.0804 0.0264,-0.0101 0.0518,-0.0222 0.0778,-0.033 0.0599,-0.0252 0.1199,-0.0501 0.17784,-0.0789 0.0581,-0.0285 0.11402,-0.0604 0.17011,-0.0923 0.0276,-0.0158 0.0559,-0.0303 0.083,-0.0469 0.2617,-0.15878 0.49977,-0.35083 0.7062,-0.56444 0.31783,-0.32889 0.58398,-0.71148 0.80208,-1.13456 0.3117,-0.6047 0.43526,-1.21061 0.48454,-1.80365 v -0.10928 c 0.0328,-0.48182 0.0222,-0.95464 0.0222,-1.40931 v -0.0216 c 2e-5,-0.39691 0.002,-0.80154 -0.0222,-1.21445 v -0.0964 -8.39398 -0.0985 c 0.0234,-0.40971 0.0222,-0.81044 0.0222,-1.20415 v -0.0216 c 0,-0.45265 0.0103,-0.92322 -0.0222,-1.4026 v -0.10928 c -0.0491,-0.59539 -0.17249,-1.20362 -0.48454,-1.81035 -0.21799,-0.423 -0.48313,-0.8049 -0.80002,-1.13301 -0.41994,-0.43479 -0.96661,-0.78773 -1.58817,-0.93662 -0.10203,-0.0246 -0.20604,-0.0437 -0.31187,-0.0567 -3.3e-4,-4e-5 -6.9e-4,4e-5 -10e-4,0 -0.0658,-0.008 -0.13338,-0.009 -0.20052,-0.0124 -0.0419,-0.002 -0.0829,-0.008 -0.12526,-0.008 h -1.65982 -1.31446 z m 0.002,1.24591 h 6.34034 c 0.14589,0 0.33726,9e-5 0.52836,0.003 -0.0956,-0.002 -0.19145,-0.003 -0.28145,-0.003 h 1.40828 c 0.48754,0 0.94206,0.23251 1.32786,0.63248 0.22053,0.22864 0.41963,0.51072 0.58815,0.83816 0.37969,0.73916 0.37424,1.70006 0.37424,2.75161 v 0.0217 c 0,0.5251 4.9e-4,1.02788 -0.0469,1.49075 -0.0468,0.45648 -0.13972,0.87476 -0.32733,1.2392 -0.46334,0.90011 -1.14984,1.47168 -1.91601,1.47168 -0.52979,0 -1.34869,-0.003 -1.44179,0.64434 v 1.31601 c 0.1076,0.64765 0.90247,0.64186 1.44179,0.64486 0.76624,0 1.45266,0.57092 1.91601,1.47116 0.18727,0.36379 0.28001,0.78154 0.32681,1.23714 0.0478,0.46368 0.048,0.96723 0.0479,1.49333 v 0.0211 c 0,1.05164 0.006,2.01187 -0.37475,2.75109 -0.16876,0.32781 -0.36778,0.61083 -0.58867,0.83971 -0.38563,0.39957 -0.8402,0.63197 -1.32734,0.63197 h -1.40777 c 0.0899,-10e-4 0.18544,-10e-4 0.28094,-0.003 -0.19111,0.004 -0.38247,0.003 -0.52836,0.003 h -6.34034 c -0.29182,2e-5 -0.52839,-0.23106 -0.52836,-0.51599 v -18.46429 c -3e-5,-0.28493 0.23654,-0.51601 0.52836,-0.51599 z m 7.75222,8.95791 a 0.79011089,0.79011089 0 0 1 0.79022,0.79022 0.79011089,0.79011089 0 0 1 -0.79022,0.78971 0.79011089,0.79011089 0 0 1 -0.79022,-0.78971 0.79011089,0.79011089 0 0 1 0.79022,-0.79022 z" /></g></g><path
       d="m -83.003913,357.58309 q -1.191148,0 -1.927779,-0.72096 -0.736631,-0.73663 -0.736631,-1.92778 v -5.98708 q 0,-1.19115 0.736631,-1.91211 0.736631,-0.73663 1.927779,-0.73663 1.191148,0 1.927779,0.73663 0.736631,0.72096 0.736631,1.91211 v 5.98708 q 0,1.19115 -0.736631,1.92778 -0.736631,0.72096 -1.927779,0.72096 z m 0,-1.5673 q 0.47019,0 0.736631,-0.28211 0.266441,-0.28212 0.266441,-0.79933 v -5.98708 q 0,-0.51721 -0.266441,-0.79933 -0.266441,-0.28211 -0.736631,-0.28211 -0.47019,0 -0.736631,0.28211 -0.266441,0.28212 -0.266441,0.79933 v 5.98708 q 0,0.51721 0.266441,0.79933 0.266441,0.28211 0.736631,0.28211 z m 8.071591,1.41057 -1.206821,-4.5295 h -0.862015 v 4.5295 h -1.661338 v -10.9711 h 2.601718 q 1.191148,0 1.896433,0.72096 0.705285,0.70528 0.705285,1.89643 v 1.20682 q 0,0.75231 -0.297787,1.33221 -0.297787,0.5799 -0.846342,0.90903 l 1.394897,4.90565 z m -2.068836,-6.0968 h 0.862015 q 0.485863,0 0.752304,-0.26644 0.266441,-0.26644 0.266441,-0.7523 v -1.26951 q 0,-0.48587 -0.266441,-0.75231 -0.266441,-0.26644 -0.752304,-0.26644 h -0.862015 z m 7.617069,6.25353 q -1.159802,0 -1.88076,-0.72096 -0.720958,-0.72095 -0.720958,-1.88076 v -6.08112 q 0,-1.1598 0.720958,-1.88076 0.720958,-0.72096 1.88076,-0.72096 1.159802,0 1.880761,0.72096 0.720958,0.72096 0.720958,1.88076 v 1.28518 h -1.629993 v -1.28518 q 0,-0.47019 -0.266441,-0.75231 -0.266441,-0.28211 -0.689612,-0.28211 -0.423171,0 -0.689612,0.28211 -0.266441,0.28212 -0.266441,0.75231 v 6.08112 q 0,0.47019 0.266441,0.75231 0.266441,0.28211 0.689612,0.28211 0.423171,0 0.689612,-0.28211 0.266441,-0.28212 0.266441,-0.75231 v -1.5673 h 1.629993 v 1.5673 q 0,1.15981 -0.720958,1.88076 -0.720959,0.72096 -1.880761,0.72096 z m 6.64535,0 q -1.159802,0 -1.88076,-0.72096 -0.720958,-0.72095 -0.720958,-1.88076 v -6.08112 q 0,-1.1598 0.720958,-1.88076 0.720958,-0.72096 1.88076,-0.72096 1.159802,0 1.88076,0.72096 0.720958,0.72096 0.720958,1.88076 v 1.28518 h -1.629992 v -1.28518 q 0,-0.47019 -0.266441,-0.75231 -0.266441,-0.28211 -0.689612,-0.28211 -0.423171,0 -0.689612,0.28211 -0.266441,0.28212 -0.266441,0.75231 v 6.08112 q 0,0.47019 0.266441,0.75231 0.266441,0.28211 0.689612,0.28211 0.423171,0 0.689612,-0.28211 0.266441,-0.28212 0.266441,-0.75231 v -1.5673 h 1.629992 v 1.5673 q 0,1.15981 -0.720958,1.88076 -0.720958,0.72096 -1.88076,0.72096 z m 6.645353,0 q -1.144129,0 -1.865087,-0.70528 -0.720958,-0.72096 -0.720958,-1.86509 v -8.55746 h 1.661338 v 8.55746 q 0,0.47019 0.250768,0.73663 0.266441,0.26644 0.673939,0.26644 0.407498,0 0.658266,-0.26644 0.266441,-0.26644 0.266441,-0.73663 v -8.55746 h 1.629992 v 8.55746 q 0,1.14413 -0.705285,1.86509 -0.705285,0.70528 -1.849414,0.70528 z"
       id="text17"
       style="font-size:15.673px;line-height:1;font-family:Bebas;-inkscape-font-specification:'Bebas, Normal';text-align:center;letter-spacing:0px;word-spacing:0px;text-anchor:middle;stroke-width:4.26678;paint-order:fill markers stroke"
       transform="scale(1.1830753,0.84525473)"
       aria-label="ORCCU" /></g></svg>
